<?xml version="1.0" standalone="no"?><!DOCTYPE svg PUBLIC "-//W3C//DTD SVG 1.1//EN" "http://www.w3.org/Graphics/SVG/1.1/DTD/svg11.dtd"><svg t="1567575234635" class="icon" viewBox="0 0 1024 1024" version="1.1" xmlns="http://www.w3.org/2000/svg" p-id="5643" xmlns:xlink="http://www.w3.org/1999/xlink" width="200" height="200"><defs><style type="text/css"></style></defs><path d="M933.903006 90.119507c-15.243169-15.243169-35.505655-23.63121-57.048297-23.63121-21.552875 0-41.814338 8.398274-57.048297 23.63121L587.626421 322.30052l-394.358673-46.433542c-17.175171-1.994424-39.095413 5.595438-51.263547 17.794271l-54.517661 54.517661c-9.049097 9.038864-12.723789 20.650319-10.088776 31.830963 2.635013 11.180644 11.096732 19.925818 23.191188 23.978111l303.495222 101.854782L282.45093 627.476011l-151.585417-6.02625c-6.004761-0.167822-11.811 2.036379-16.051581 6.277984l-42.00365 42.00365c-4.839215 4.828982-7.086395 11.685133-6.057973 18.445094 1.039679 6.760984 5.217838 12.619412 11.274788 15.799848l158.77619 83.240843 83.240843 158.77619c3.181459 6.057973 9.038864 10.236132 15.799848 11.274788 1.081635 0.157589 2.162246 0.2415 3.243881 0.2415 5.658883 0 11.138688-2.235924 15.201214-6.299473l36.072567-36.06131c4.052293-4.042059 6.319939-9.543354 6.299473-15.264659l-0.451278-157.979034 121.968889-121.968889 101.854782 303.474756c4.954849 14.823614 16.859993 24.030299 31.054273 24.030299 8.92323 0 17.721617-3.862981 24.7548-10.897188l47.546899-47.546899c12.262278-12.262278 19.894096-33.679054 18.151405-50.948369l-40.702004-400.75229 233.06208-233.083569C965.355345 172.762739 965.355345 121.583103 933.903006 90.119507zM903.499555 173.812651 663.213957 414.108482c-4.567016 4.567016-6.844895 10.949376-6.194072 17.374716l41.730427 410.903487c0.441045 4.345981-2.687202 13.122879-5.763261 16.20917l-36.953633 36.9434-108.122533-322.193073c-2.373047-7.054673-8.220219-12.377912-15.474436-14.08888-7.243985-1.690502-14.865569 0.461511-20.11513 5.732561L359.571379 717.729571c-0.828878 0.828878-1.606591 1.722224-2.309602 2.687202-2.918469 4.031826-4.293793 8.860808-4.073782 13.647835l0.451278 157.001777-9.080819 9.070586L271.773753 761.308089c-2.026146-3.874237-5.186116-7.034207-9.060353-9.060353l-138.829905-72.7847 14.676257-14.670118 151.585417 6.03239c5.962805 0.2415 11.811-2.023076 16.051581-6.264681l152.834874-152.808268c5.270027-5.259794 7.433296-12.815887 5.732561-20.059871-1.700735-7.254218-7.034207-12.995989-14.08888-15.368012L128.493489 368.416837l43.925419-48.303122c2.487657-2.487657 9.627265-9.420557 15.684214-9.420557 0.041956 0 0.094144 0 0.1361 0l404.710438 51.592029c6.603395 0.766456 13.07069 0.040932 17.71036-4.609994l239.550865-238.35155c14.224979-14.224979 39.043225-13.625322 53.289694 0.599657C918.187069 134.621047 918.187069 159.125137 903.499555 173.812651z" p-id="5644" fill="#d81e06"></path></svg>